<svg fill="none" height="24" viewBox="0 0 24 24" width="24" xmlns="http://www.w3.org/2000/svg"><g fill="#292d32"><path d="m4.92957 22.75c-.42 0-.81-.1-1.16-.3-.77-.45-1.21-1.36-1.21-2.49v-14.1c0-2.54 2.07-4.61 4.61-4.61h9.65003c2.54 0 4.61 2.07 4.61 4.61v14.09c0 1.13-.44 2.04-1.21 2.49s-1.78.4-2.77-.15l-4.88-2.71c-.29-.16-.86-.16-1.15 0l-4.88003 2.71c-.54.3-1.09.46-1.61.46zm2.25-20c-1.71 0-3.11 1.4-3.11 3.11v14.09c0 .59.17 1.03.47 1.2s.77.12 1.28-.17l4.88003-2.71c.74-.41 1.86-.41 2.6 0l4.88 2.71c.51.29.98.35 1.28.17s.47-.62.47-1.2v-14.09c0-1.71-1.4-3.11-3.11-3.11z"/><path d="m11.0903 13.2499c-.19 0-.38-.07-.53-.22l-1.50003-1.5c-.29-.29-.29-.77 0-1.06s.77-.29 1.06003 0l.97.97 3.47-3.46996c.29-.29.77-.29 1.06 0s.29.77 0 1.06l-4 3.99996c-.15.15-.34.22-.53.22z"/></g></svg>