<?xml version="1.0" encoding="utf-8"?>
<svg fill="black" height="24" viewBox="0 0 24 24" width="24" xmlns="http://www.w3.org/2000/svg">
  <defs/>
  <path d="M 17.66 22.67 C 17.13 22.67 16.45 22.5 15.6 22 L 12.61 20.23 C 12.3 20.05 11.7 20.05 11.4 20.23 L 8.4 22 C 6.63 23.05 5.59 22.63 5.12 22.29 C 4.66 21.95 3.94 21.08 4.41 19.08 L 5.12 16.01 C 5.2 15.69 5.04 15.14 4.8 14.9 L 2.32 12.42 C 1.08 11.18 1.18 10.12 1.35 9.6 C 1.52 9.08 2.06 8.16 3.78 7.87 L 6.97 7.34 C 7.27 7.29 7.7 6.97 7.83 6.7 L 9.6 3.17 C 10.4 1.56 11.45 1.32 12 1.32 C 12.55 1.32 13.6 1.56 14.4 3.17 L 16.16 6.69 C 16.3 6.96 16.73 7.28 17.03 7.33 L 20.22 7.86 C 21.95 8.15 22.49 9.07 22.65 9.59 C 22.81 10.11 22.91 11.17 21.68 12.41 L 19.2 14.9 C 18.96 15.14 18.81 15.68 18.88 16.01 L 19.59 19.08 C 20.05 21.08 19.34 21.95 18.88 22.29 C 18.63 22.47 18.23 22.67 17.66 22.67 Z M 11.889 2.616 C 12.379 2.616 15.359 16.564 15.749 16.794 L 17.985 17.979 C 18.855 18.499 14.846 16.741 15.056 16.591 C 15.266 16.441 14.524 18.648 14.304 17.668 L 11.738 13.426 C 11.548 12.596 14.154 11.054 14.754 10.444 L 20.62 11.36 C 21.11 10.87 21.33 10.39 21.23 10.06 C 21.12 9.73 21.836 12.005 21.156 11.895 L 16.79 8.82 C 16.02 8.69 15.18 8.07 14.83 7.37 L 10.74 3.102 C 10.42 2.462 12.35 2.83 12 2.83 C 11.65 2.83 21.246 11.471 20.936 12.111 L 9.17 7.37 C 8.82 8.07 10.894 4.272 10.124 4.402 L 20.167 10.191 C 19.487 10.301 4.522 12.195 4.412 12.525 C 4.302 12.855 2.9 10.88 3.39 11.36 L 21.558 9.972 C 22.158 10.572 8.351 20.422 8.161 21.252 L 5.88 19.42 C 5.65 20.41 11.268 13.188 11.478 13.338 C 11.688 13.488 6.77 21.22 7.65 20.71 L 10.64 18.94 C 11.02 18.71 11.399 2.616 11.889 2.616 Z" fill="#292d32"/>
</svg>