<svg fill="none" height="24" viewBox="0 0 24 24" width="24" xmlns="http://www.w3.org/2000/svg"><g fill="#292d32"><path d="m11.9998 10.2801c-1.02 0-2.04004-.18-3.01004-.53005-.39-.14-.59-.57-.45-.96.15-.39.58-.59.97-.45 1.61004.58 3.38004.58 4.99004 0 .39-.14.82.06.96.45s-.06.82-.45.96c-.97.35005-1.99.53005-3.01.53005z"/><path d="m19.0703 22.75c-.51 0-1.07-.15-1.61-.46l-4.88-2.71c-.29-.16-.86-.16-1.15 0l-4.87999 2.71c-.99.55-2 .61-2.77.15-.77-.45-1.21-1.36-1.21-2.49v-14.09c0-2.54 2.07-4.61 4.61-4.61h9.64999c2.54 0 4.61 2.07 4.61 4.61v14.09c0 1.13-.44 2.04-1.21 2.49-.35.21-.75.31-1.16.31zm-7.07-4.79c.47 0 .93.1 1.3.31l4.88 2.71c.51.29.98.35 1.28.17s.47-.61.47-1.2v-14.09c0-1.71-1.4-3.11-3.11-3.11h-9.63999c-1.71 0-3.11 1.4-3.11 3.11v14.09c0 .59.17 1.03.47 1.2s.76.12 1.28-.17l4.87999-2.71c.37-.21.83-.31 1.3-.31z"/><path d="m19.0703 22.75c-.51 0-1.07-.15-1.61-.46l-4.88-2.71c-.29-.16-.86-.16-1.15 0l-4.87999 2.71c-.99.55-2 .61-2.77.15-.77-.45-1.21-1.36-1.21-2.49v-14.09c0-2.54 2.07-4.61 4.61-4.61h9.64999c2.54 0 4.61 2.07 4.61 4.61v14.09c0 1.13-.44 2.04-1.21 2.49-.35.21-.75.31-1.16.31zm-7.07-4.79c.47 0 .93.1 1.3.31l4.88 2.71c.51.29.98.35 1.28.17s.47-.61.47-1.2v-14.09c0-1.71-1.4-3.11-3.11-3.11h-9.63999c-1.71 0-3.11 1.4-3.11 3.11v14.09c0 .59.17 1.03.47 1.2s.76.12 1.28-.17l4.87999-2.71c.37-.21.83-.31 1.3-.31z"/></g></svg>